<svg xmlns="http://www.w3.org/2000/svg" id="Layer_1" data-name="Layer 1" viewBox="48.18 40.4 517 64"><defs><style>.cls-1{fill:#202020;}.cls-2{fill:#ff5a59;}</style></defs><path class="cls-1" d="M102.18,94.4h-26v-3h-10v3a10,10,0,0,0,10,10h26a10,10,0,0,0,10-10v-23l-10,10Z"/><path class="cls-2" d="M84.18,40.4h-26a10,10,0,0,0-10,10v24l10-10h0v-14h26v3h10v-3A10,10,0,0,0,84.18,40.4Z"/><path class="cls-2" d="M84.18,73.4v3h-26v-5l-10,10,10,10v-5h26a10,10,0,0,0,10-10v-3Z"/><path class="cls-1" d="M112.18,63.4l-10-10v5h-26a10,10,0,0,0-10,10v3h10v-3h26v5Z"/><path class="cls-1" d="M152.9,58a12,12,0,0,1,6.72-1.89,13,13,0,0,1,4,.58,10.14,10.14,0,0,1,3.29,1.73,9.88,9.88,0,0,1,2.4,2.74,10.09,10.09,0,0,1,1.29,3.7h8.94a19.79,19.79,0,0,0-2.24-7.06,17.37,17.37,0,0,0-4.37-5.23,19,19,0,0,0-6.07-3.26,23.65,23.65,0,0,0-7.36-1.11,21.5,21.5,0,0,0-11.06,2.86,20.31,20.31,0,0,0-7.74,8.27,27.7,27.7,0,0,0-2.85,13.05,27.87,27.87,0,0,0,2.82,13,20.16,20.16,0,0,0,7.72,8.28,21.44,21.44,0,0,0,11.11,2.88,22.38,22.38,0,0,0,7.75-1.28,18.87,18.87,0,0,0,6.06-3.54,18.59,18.59,0,0,0,4.17-5.23,18.38,18.38,0,0,0,2.06-6.3l-8.94,0a10.17,10.17,0,0,1-1.36,3.6,9.83,9.83,0,0,1-2.43,2.66,10.43,10.43,0,0,1-3.28,1.65,13.41,13.41,0,0,1-3.92.55,11.74,11.74,0,0,1-11.2-7.33,21.57,21.57,0,0,1-1.64-8.94,21.49,21.49,0,0,1,1.63-8.85A12.48,12.48,0,0,1,152.9,58Z"/><polygon class="cls-1" points="200.34 69.57 199.88 69.57 188.55 48.86 178.57 48.86 195.72 78.58 195.72 95.93 204.52 95.93 204.52 78.58 221.64 48.86 211.69 48.86 200.34 69.57"/><path class="cls-1" d="M255.8,73.06A10.13,10.13,0,0,0,251,71.55v-.46a12.6,12.6,0,0,0,4.2-1.83,9.27,9.27,0,0,0,3-3.33,10.15,10.15,0,0,0,1.1-4.89,11.12,11.12,0,0,0-6.8-10.59,20.12,20.12,0,0,0-8.52-1.59H225.67V95.93H245a20.82,20.82,0,0,0,8.94-1.69,11.81,11.81,0,0,0,7.14-11.18A11.89,11.89,0,0,0,259.59,77,10.92,10.92,0,0,0,255.8,73.06ZM234.52,56.13h8.39a8,8,0,0,1,5.57,1.72,5.71,5.71,0,0,1,1.9,4.41,6.08,6.08,0,0,1-1,3.5A6.63,6.63,0,0,1,246.63,68a9.23,9.23,0,0,1-3.91.79h-8.2ZM250,86.85q-2,1.75-6.57,1.75h-8.94V75.09h9.17a9.76,9.76,0,0,1,4.46.94A7.09,7.09,0,0,1,251,78.61a6.93,6.93,0,0,1,1,3.72A5.68,5.68,0,0,1,250,86.85Z"/><polygon class="cls-1" points="274.06 76.08 294.5 76.08 294.5 68.67 274.06 68.67 274.06 56.24 296.08 56.24 296.08 48.86 265.22 48.86 265.22 95.93 296.24 95.93 296.24 88.56 274.06 88.56 274.06 76.08"/><path class="cls-1" d="M328.39,77a12.94,12.94,0,0,0,5.69-5.13A15.38,15.38,0,0,0,336,64a16.07,16.07,0,0,0-1.91-8,13,13,0,0,0-5.63-5.29,19.92,19.92,0,0,0-9.1-1.89H301.5V95.93h8.85V78.81h8.38l9.18,17.12h9.84l-10.18-18.6C327.84,77.22,328.13,77.13,328.39,77Zm-18-20.82h7.58a12.41,12.41,0,0,1,5.12.92,6.27,6.27,0,0,1,3,2.67A8.51,8.51,0,0,1,327,64a8.13,8.13,0,0,1-1,4.14,6,6,0,0,1-2.95,2.56,13,13,0,0,1-5.09.86h-7.63Z"/><polygon class="cls-1" points="372.08 80.4 371.64 80.4 349.92 48.86 342.01 48.86 342.01 95.93 350.86 95.93 350.86 64.4 351.25 64.4 373.06 95.93 380.86 95.93 380.86 48.86 372.08 48.86 372.08 80.4"/><polygon class="cls-1" points="395.69 76.08 416.13 76.08 416.13 68.67 395.69 68.67 395.69 56.24 417.71 56.24 417.71 48.86 386.85 48.86 386.85 95.93 417.87 95.93 417.87 88.56 395.69 88.56 395.69 76.08"/><polygon class="cls-1" points="423.46 56.24 437.99 56.24 437.99 95.93 446.74 95.93 446.74 56.24 461.27 56.24 461.27 48.86 423.46 48.86 423.46 56.24"/><rect class="cls-1" x="466.73" y="48.86" width="8.85" height="47.07"/><path class="cls-1" d="M513.21,80.21a10.16,10.16,0,0,1-1.35,3.6,9.86,9.86,0,0,1-2.44,2.66,10.43,10.43,0,0,1-3.28,1.65,13.34,13.34,0,0,1-3.91.55A11.74,11.74,0,0,1,491,81.34a21.73,21.73,0,0,1-1.64-8.94A21.49,21.49,0,0,1,491,63.55,12.55,12.55,0,0,1,495.55,58a12.06,12.06,0,0,1,6.72-1.89,13.14,13.14,0,0,1,4,.58,10.09,10.09,0,0,1,3.28,1.73,9.91,9.91,0,0,1,3.69,6.44h8.94a19.79,19.79,0,0,0-2.24-7.06,17.48,17.48,0,0,0-4.36-5.23,19.2,19.2,0,0,0-6.07-3.26,23.71,23.71,0,0,0-7.37-1.11,21.44,21.44,0,0,0-11.05,2.86,20.26,20.26,0,0,0-7.75,8.27,27.7,27.7,0,0,0-2.85,13.05,27.75,27.75,0,0,0,2.83,13A20.08,20.08,0,0,0,491,93.7a21.44,21.44,0,0,0,11.11,2.88,22.44,22.44,0,0,0,7.76-1.28,18.77,18.77,0,0,0,10.23-8.77,18.37,18.37,0,0,0,2-6.3Z"/><path class="cls-1" d="M555.74,95.93h9.44L548.66,48.86h-11L521.13,95.93h9.44l3.82-11.42h17.54Zm-19-18.48L543,58.77h.37l6.23,18.68Z"/></svg>