<?xml version="1.0" encoding="utf-8"?>
<!-- Generator: Adobe Illustrator 19.1.0, SVG Export Plug-In . SVG Version: 6.00 Build 0)  -->
<svg version="1.1" id="Layer_1" xmlns="http://www.w3.org/2000/svg" xmlns:xlink="http://www.w3.org/1999/xlink" x="0px" y="0px"
	 width="381.6px" height="56.7px" viewBox="0 0 381.6 56.7" style="enable-background:new 0 0 381.6 56.7;" xml:space="preserve">
<style type="text/css">
	.st0{fill:#5E6167;}
	.st1{fill:#EE2E24;}
	.st2{fill:#87898F;}
</style>
<g>
	<path class="st0" d="M136.8,32.5h6.5c2,0,3.6,1.6,3.6,3.6c0,2-1.6,3.6-3.6,3.6h-6.5V32.5z M148.1,36.1c0-2.7-2.2-4.9-4.9-4.9h-7.8
		V41l7.8,0C146,41,148.1,38.8,148.1,36.1 M143.3,44.7h-9V14.1h7.9c4.7,0,8.6,3.8,8.6,8.6c0,2.5-1.1,4.7-2.8,6.3h0
		c2.3,1.5,3.9,4.2,3.9,7.2C151.8,40.9,148,44.7,143.3,44.7 M149.8,28.8c1.4-1.7,2.2-3.8,2.2-6.1c0-5.4-4.4-9.8-9.8-9.8H133V46h1.2v0
		h9c5.4,0,9.8-4.4,9.8-9.8C153.1,33.2,151.8,30.6,149.8,28.8 M145.5,29.2c2.3-1.2,3.9-3.7,3.9-6.5c0-4-3.3-7.3-7.3-7.3h-6.5v1.2h6.5
		c3.4,0,6.1,2.7,6.1,6.1c0,3.4-2.7,6.1-6.1,6.1l-6.6,0v1.2h7.8c3.4,0,6.1,2.7,6.1,6.1c0,3.4-2.7,6.1-6.1,6.1h-7.8v1.2h7.8
		c4,0,7.3-3.3,7.3-7.3C150.6,32.9,148.5,30.1,145.5,29.2 M130.6,46h1.2V12.9h-1.2V46z M136.8,19.1h5.4c2,0,3.6,1.6,3.6,3.6
		c0,2-1.6,3.6-3.6,3.6h-5.4V19.1z M147,22.7c0-2.7-2.2-4.9-4.9-4.9h-6.6v9.7l6.6,0C144.8,27.6,147,25.4,147,22.7 M261.7,16.6h13.9
		v-1.2h-13.9V16.6z M259.2,46h16.3v-1.2h-15.1V14.1h15.1v-1.2h-16.3V46z M293.8,46h1.2V19.1h8.6v-1.2h-9.8V46z M280.3,16.6h9.8v-1.2
		h-9.8V16.6z M280.3,19.1h8.6V46h1.2V17.8h-9.8V19.1z M261.7,27.6h10.1v-1.2h-8.9v-7.3h12.6v-1.2h-13.9V27.6z M271.8,28.8h-10.1V30
		h10.1V28.8z M243.4,46h1.2V12.9h-1.2V46z M245.9,46h1.2V12.9h-1.2V46z M262.9,32.5h8.9v-1.2h-10.1V41h13.9v-1.2h-12.6V32.5z
		 M256.8,46h1.2V12.9h-1.2V46z M261.7,43.5h13.9v-1.2h-13.9V43.5z M358.3,39.8l-2.7,6.2h1.4l2.2-4.9h13.6l2.2,4.9h1.4l-2.7-6.2
		H358.3z M240.9,33.6l-14.8-20.7h-1.5l17.5,24.5v-0.4l0,0.1V12.9h-1.2V33.6z M293.8,16.6h9.8v-1.2h-9.8V16.6z M365.9,10.4L350.1,46
		h1.4l14.4-32.5L380.3,46h1.4L365.9,10.4z M349.3,17.5c-3.1-3-7.3-4.9-11.9-4.9c-9.3,0-16.9,7.6-16.9,16.9c0,9.3,7.6,16.9,16.9,16.9
		c4.6,0,8.8-1.9,11.9-4.9l-0.8-0.8c-2.8,2.8-6.7,4.6-11,4.6c-8.6,0-15.7-7-15.7-15.7s7-15.7,15.7-15.7c4.3,0,8.2,1.7,11,4.6
		L349.3,17.5z M358,37.3l7.9-17.7l7.9,17.7H358z M352.8,46h1.4l3.3-7.4h16.8l3.3,7.4h1.4l-13-29.4L352.8,46z M361.8,34.8l4.1-9.2
		l4.1,9.2H361.8z M359.9,36.1h11.9l-6-13.5L359.9,36.1z M280.3,14.1h11.1V46h1.2V14.1h11.1v-1.2h-23.3V14.1z M347.5,19.2
		c-2.6-2.6-6.2-4.2-10.1-4.2c-7.9,0-14.4,6.5-14.4,14.4c0,7.9,6.5,14.4,14.4,14.4c3.9,0,7.5-1.6,10.1-4.2l-0.8-0.8
		c-2.4,2.4-5.7,3.8-9.3,3.8c-7.3,0-13.2-5.9-13.2-13.2c0-7.3,5.9-13.2,13.2-13.2c3.6,0,6.9,1.5,9.3,3.8L347.5,19.2z M309.1,46h1.2
		V12.9h-1.2V46z M311.5,46h1.2V12.9h-1.2V46z M337.4,18.7c2.9,0,5.6,1.2,7.5,3.1l0.8-0.8c-2.2-2.1-5.1-3.5-8.4-3.5
		c-6.6,0-11.9,5.3-11.9,11.9c0,6.6,5.3,11.9,11.9,11.9c3.3,0,6.2-1.3,8.4-3.5l-0.8-0.8c-1.9,1.9-4.6,3.1-7.5,3.1
		c-5.9,0-10.7-4.8-10.7-10.7C326.7,23.5,331.5,18.7,337.4,18.7 M98.3,12.9l11.2,18.8v13.7h1.2v-14l-11-18.4H98.3z M314,46h1.2V12.9
		H314V46z M160.9,46h1.2V12.9h-1.2V46z M176,28.8h-10.1V30H176V28.8z M167.1,32.5h8.9v-1.2h-10.1V41h13.9v-1.2h-12.6V32.5z
		 M121,12.9h-1.5l-7.1,11.9l-7.1-11.9H104l8.5,14.3L121,12.9z M165.9,43.5h13.9v-1.2h-13.9V43.5z M86.4,18.7c2.9,0,5.6,1.2,7.5,3.1
		l0.8-0.8c-2.2-2.1-5.1-3.5-8.4-3.5c-6.6,0-11.9,5.3-11.9,11.9c0,6.6,5.3,11.9,11.9,11.9c3.3,0,6.2-1.3,8.4-3.5L93.9,37
		c-1.9,1.9-4.6,3.1-7.5,3.1c-5.9,0-10.7-4.8-10.7-10.7C75.7,23.5,80.5,18.7,86.4,18.7 M114.4,31.3v14h1.2V31.6l11.2-18.8h-1.5
		L114.4,31.3z M122.4,12.9l-9.9,16.7l-9.9-16.7h-1.5L111.9,31v14.4h1.2V31l10.8-18.1H122.4z M98.3,17.5c-3.1-3-7.3-4.9-11.9-4.9
		c-9.3,0-16.9,7.6-16.9,16.9c0,9.3,7.6,16.9,16.9,16.9c4.6,0,8.8-1.9,11.9-4.9l-0.8-0.8c-2.8,2.8-6.7,4.6-11,4.6
		c-8.6,0-15.7-7-15.7-15.7s7-15.7,15.7-15.7c4.3,0,8.2,1.7,11,4.6L98.3,17.5z M96.5,19.2c-2.6-2.6-6.2-4.2-10.1-4.2
		C78.5,15,72,21.5,72,29.4c0,7.9,6.5,14.4,14.4,14.4c3.9,0,7.5-1.6,10.1-4.2l-0.8-0.8c-2.4,2.4-5.7,3.8-9.3,3.8
		c-7.3,0-13.2-5.9-13.2-13.2c0-7.3,5.9-13.2,13.2-13.2c3.6,0,6.9,1.5,9.3,3.8L96.5,19.2z M163.4,46h16.3v-1.2h-15.1V14.1h15.1v-1.2
		h-16.3V46z M211.4,25.1c0-6.7-5.5-12.2-12.2-12.2l-7.7,0V46h1.2V14.1l6.4,0c6,0,10.9,4.9,10.9,10.9c0,4-2.2,7.5-5.4,9.4l5,11.5h1.3
		l-4.8-11C209.4,32.7,211.4,29.1,211.4,25.1 M224.6,19.2V46h1.2V23L242.2,46v-2.1l-16.3-22.9L224.6,19.2z M222.1,46h1.2V12.9h-1.2
		V46z M209,25.1c0-5.3-4.3-9.7-9.7-9.7h-5.2v1.2h5.2c4.7,0,8.4,3.8,8.4,8.4c0,3.9-2.6,7.1-6.2,8.1l5.5,12.8h1.3l-5.2-12.1
		C206.6,32.4,209,29,209,25.1 M224.6,17l17.6,24.7v-2.1l-17.6-24.7V17z M165.9,16.6h13.9v-1.2h-13.9V16.6z M165.9,27.6H176v-1.2
		h-8.9v-7.3h12.6v-1.2h-13.9V27.6z M219.6,46h1.2V12.9h-1.2V46z M189.1,46h1.2V12.9h-1.2V46z M206.5,25.1c0-4-3.2-7.2-7.2-7.2h-5.2
		V46h1.2V19.1h4c3.3,0,6,2.7,6,6c0,3.3-2.7,6-6,6h-1.3l6.5,15h1.3l-5.9-13.7C203.5,32,206.5,28.8,206.5,25.1"/>
	<path class="st1" d="M30.4,30.3H11.4l0-5.7L0,36l11.4,11.4l0-5.7H33c4.8,0,8.7-3.9,8.7-8.7v-6.5H30.4V30.3z M33,0L8.8,0
		C4,0,0.1,3.9,0.1,8.7l0,21.8l11.2-11.2l0,0l0-8h19.1v3.9h11.3V8.7C41.7,3.9,37.8,0,33,0"/>
	<path class="st2" d="M45.6,37.5l0,8H26.5v-3.9H15.3l0,6.4c0,4.8,3.9,8.7,8.7,8.7h24.2c4.8,0,8.7-3.9,8.7-8.7V26.2L45.6,37.5
		L45.6,37.5z M26.5,26.4h19.1l0,5.7L57,20.7L45.6,9.4l0,5.7l-21.7,0c-4.8,0-8.7,3.9-8.7,8.7v6.5h11.3V26.4z"/>
</g>
</svg>
