<?xml version="1.0" encoding="UTF-8" standalone="no"?>
<!DOCTYPE svg PUBLIC "-//W3C//DTD SVG 1.1//EN" "http://www.w3.org/Graphics/SVG/1.1/DTD/svg11.dtd">
<svg width="100%" height="100%" viewBox="0 0 2068 238" version="1.1" xmlns="http://www.w3.org/2000/svg" xmlns:xlink="http://www.w3.org/1999/xlink" xml:space="preserve" xmlns:serif="http://www.serif.com/" style="fill-rule:evenodd;clip-rule:evenodd;stroke-linejoin:round;stroke-miterlimit:2;">
    <g transform="matrix(1,0,0,1,-1763.78,-4988.2)">
        <g transform="matrix(5.55556,0,0,5.55556,0,3720.47)">
            <g transform="matrix(1,0,0,1,480.787,253.519)">
                <path d="M0,-7.875C0,-12.612 -3.855,-16.467 -8.592,-16.467L-14.792,-16.467L-14.792,17.065L-13.318,17.065L-13.318,-14.981L-8.592,-14.981C-4.675,-14.981 -1.486,-11.793 -1.486,-7.875C-1.486,-3.955 -4.675,-0.767 -8.592,-0.767L-10.195,-0.767L-2.497,17.065L-0.894,17.065L-7.962,0.687C-3.518,0.363 0,-3.35 0,-7.875M-20.685,17.065L-19.211,17.065L-19.211,-22.379L-20.685,-22.379L-20.685,17.065ZM15.703,17.065L17.175,17.065L17.175,-22.381L15.703,-22.381L15.703,17.065ZM-48.407,-4.87L-36.352,-4.87L-36.352,-6.342L-46.936,-6.342L-46.936,-15.014L-31.876,-15.014L-31.876,-16.486L-48.407,-16.486L-48.407,-4.87ZM-48.407,-17.96L-31.876,-17.96L-31.876,-19.432L-48.407,-19.432L-48.407,-17.96ZM21.596,-17.422L42.554,11.985L42.554,9.447L21.596,-19.958L21.596,-17.422ZM2.958,-7.875C2.958,-14.245 -2.223,-19.425 -8.592,-19.425L-14.792,-19.425L-14.792,-17.939L-8.592,-17.939C-3.043,-17.939 1.472,-13.425 1.472,-7.875C1.472,-3.27 -1.643,0.617 -5.876,1.807L0.712,17.065L2.317,17.065L-3.9,2.662C0.134,0.862 2.958,-3.18 2.958,-7.875M18.649,17.065L20.121,17.065L20.121,-22.381L18.649,-22.381L18.649,17.065ZM21.596,-14.911L21.596,17.065L23.068,17.065L23.068,-10.276L42.554,17.065L42.554,14.526L23.068,-12.815L21.596,-14.911ZM5.912,-7.875C5.912,-15.873 -0.593,-22.381 -8.592,-22.381L-17.739,-22.378L-17.739,17.065L-16.264,17.065L-16.264,-20.904L-8.592,-20.895C-1.413,-20.895 4.426,-15.053 4.426,-7.875C4.426,-3.103 1.841,1.08 -2.002,3.347L3.923,17.065L5.526,17.065L-0.154,3.903C3.513,1.271 5.912,-3.026 5.912,-7.875M-51.355,17.065L-31.876,17.065L-31.876,15.591L-49.883,15.591L-49.883,-20.906L-31.876,-20.906L-31.876,-22.381L-51.355,-22.381L-51.355,17.065ZM-131.113,-14.827C-134.215,-17.909 -138.486,-19.816 -143.193,-19.816C-152.654,-19.816 -160.349,-12.119 -160.349,-2.658C-160.349,6.803 -152.654,14.501 -143.193,14.501C-138.486,14.501 -134.215,12.593 -131.113,9.512L-132.116,8.51C-134.963,11.331 -138.877,13.082 -143.193,13.082C-151.87,13.082 -158.931,6.023 -158.931,-2.658C-158.931,-11.336 -151.87,-18.396 -143.193,-18.396C-138.877,-18.396 -134.963,-16.646 -132.116,-13.824L-131.113,-14.827ZM-129.023,-16.917C-132.662,-20.534 -137.67,-22.774 -143.193,-22.774C-154.284,-22.774 -163.307,-13.749 -163.307,-2.658C-163.307,8.434 -154.284,17.454 -143.193,17.454C-137.67,17.454 -132.662,15.218 -129.023,11.601L-130.026,10.6C-133.407,13.958 -138.062,16.038 -143.193,16.038C-153.501,16.038 -161.886,7.651 -161.886,-2.658C-161.886,-12.966 -153.501,-21.354 -143.193,-21.354C-138.062,-21.354 -133.407,-19.271 -130.028,-15.913L-129.023,-16.917ZM-100.195,-22.381L-112.034,-2.488L-123.876,-22.381L-125.607,-22.381L-112.779,-0.827L-112.779,16.318L-111.291,16.318L-111.291,-0.825L-98.463,-22.381L-100.195,-22.381ZM-109.831,-0.426L-109.831,16.318L-108.345,16.318L-108.345,-0.017L-95.034,-22.381L-96.764,-22.381L-109.831,-0.426ZM-143.193,-15.428C-139.696,-15.428 -136.522,-14.015 -134.213,-11.727L-133.209,-12.729C-135.776,-15.272 -139.303,-16.849 -143.193,-16.849C-151.018,-16.849 -157.383,-10.481 -157.383,-2.658C-157.383,5.168 -151.018,11.534 -143.193,11.534C-139.303,11.534 -135.776,9.959 -133.209,7.413L-134.213,6.412C-136.522,8.699 -139.696,10.113 -143.193,10.113C-150.235,10.113 -155.962,4.385 -155.962,-2.658C-155.962,-9.699 -150.235,-15.428 -143.193,-15.428M-48.407,14.117L-31.876,14.117L-31.876,12.645L-48.407,12.645L-48.407,14.117ZM-101.893,-22.381L-103.623,-22.381L-112.034,-8.245L-120.447,-22.381L-122.177,-22.381L-112.034,-5.339L-101.893,-22.381ZM-46.936,1.027L-36.352,1.027L-36.352,-0.45L-48.407,-0.45L-48.407,11.17L-31.876,11.17L-31.876,9.698L-46.936,9.698L-46.936,1.027ZM-36.352,-3.396L-48.407,-3.396L-48.407,-1.919L-36.352,-1.919L-36.352,-3.396ZM-54.303,17.065L-52.829,17.065L-52.829,-22.381L-54.303,-22.381L-54.303,17.065ZM128.235,17.065L129.71,17.065L129.71,-22.381L128.235,-22.381L128.235,17.065ZM-129.036,-22.381L-115.726,-0.017L-115.726,16.318L-114.238,16.318L-114.238,-0.426L-127.306,-22.381L-129.036,-22.381ZM156.109,-15.428C159.606,-15.428 162.779,-14.015 165.088,-11.727L166.093,-12.729C163.525,-15.272 159.997,-16.849 156.109,-16.849C148.283,-16.849 141.918,-10.481 141.918,-2.658C141.918,5.168 148.283,11.534 156.109,11.534C159.997,11.534 163.525,9.959 166.093,7.413L165.088,6.412C162.779,8.699 159.606,10.113 156.109,10.113C149.067,10.113 143.338,4.385 143.338,-2.658C143.338,-9.699 149.067,-15.428 156.109,-15.428M125.291,17.065L126.763,17.065L126.763,-22.381L125.291,-22.381L125.291,17.065ZM122.343,17.065L123.817,17.065L123.817,-22.381L122.343,-22.381L122.343,17.065ZM168.188,-14.827C165.085,-17.909 160.817,-19.816 156.109,-19.816C146.649,-19.816 138.951,-12.119 138.951,-2.658C138.951,6.803 146.649,14.501 156.109,14.501C160.817,14.501 165.085,12.593 168.188,9.512L167.186,8.51C164.339,11.331 160.425,13.082 156.109,13.082C147.432,13.082 140.372,6.023 140.372,-2.658C140.372,-11.336 147.432,-18.396 156.109,-18.396C160.425,-18.396 164.339,-16.646 167.186,-13.824L168.188,-14.827ZM88.046,-20.906L101.225,-20.906L101.225,17.065L102.698,17.065L102.698,-20.906L115.877,-20.906L115.877,-22.381L88.046,-22.381L88.046,-20.906ZM182.966,5.278L197.175,5.278L190.072,-10.772L182.966,5.278ZM185.229,3.801L190.072,-7.132L194.911,3.801L185.229,3.801ZM174.525,17.065L176.137,17.065L180.051,8.224L200.09,8.224L204.007,17.065L205.618,17.065L190.072,-18.051L174.525,17.065ZM180.703,6.752L190.072,-14.41L199.438,6.752L180.703,6.752ZM170.278,-16.917C166.64,-20.534 161.632,-22.774 156.109,-22.774C145.018,-22.774 135.996,-13.749 135.996,-2.658C135.996,8.434 145.018,17.454 156.109,17.454C161.632,17.454 166.64,15.218 170.278,11.601L169.275,10.6C165.893,13.958 161.242,16.038 156.109,16.038C145.8,16.038 137.414,7.651 137.414,-2.658C137.414,-12.966 145.8,-21.354 156.109,-21.354C161.242,-21.354 165.893,-19.271 169.275,-15.913L170.278,-16.917ZM190.072,-25.329L171.303,17.065L172.914,17.065L190.072,-21.689L207.229,17.065L208.841,17.065L190.072,-25.329ZM104.171,-17.96L115.877,-17.96L115.877,-19.432L104.171,-19.432L104.171,-17.96ZM41.08,2.301L23.489,-22.381L21.678,-22.381L42.495,6.824L42.495,6.309L42.554,6.398L42.554,-22.381L41.08,-22.381L41.08,2.301ZM181.007,9.698L177.748,17.065L179.359,17.065L181.967,11.17L198.174,11.17L200.781,17.065L202.413,17.065L199.165,9.698L181.007,9.698ZM65.864,14.117L82.398,14.117L82.398,12.645L65.864,12.645L65.864,14.117ZM59.971,17.065L61.443,17.065L61.443,-22.381L59.971,-22.381L59.971,17.065ZM67.339,1.027L77.921,1.027L77.921,-0.45L65.864,-0.45L65.864,11.17L82.398,11.17L82.398,9.698L67.339,9.698L67.339,1.027ZM46.976,17.065L48.447,17.065L48.447,-22.381L46.976,-22.381L46.976,17.065ZM44.026,17.065L45.5,17.065L45.5,-22.381L44.026,-22.381L44.026,17.065ZM77.921,-3.396L65.864,-3.396L65.864,-1.919L77.921,-1.919L77.921,-3.396ZM65.864,-4.87L77.921,-4.87L77.921,-6.342L67.339,-6.342L67.339,-15.014L82.398,-15.014L82.398,-16.486L65.864,-16.486L65.864,-4.87ZM88.046,-15.014L98.278,-15.014L98.278,17.065L99.75,17.065L99.75,-16.486L88.046,-16.486L88.046,-15.014ZM88.046,-17.96L99.75,-17.96L99.75,-19.432L88.046,-19.432L88.046,-17.96ZM104.171,17.065L105.646,17.065L105.646,-15.014L115.877,-15.014L115.877,-16.486L104.171,-16.486L104.171,17.065ZM62.918,17.065L82.398,17.065L82.398,15.591L64.392,15.591L64.392,-20.906L82.398,-20.906L82.398,-22.381L62.918,-22.381L62.918,17.065ZM65.864,-17.96L82.398,-17.96L82.398,-19.432L65.864,-19.432L65.864,-17.96ZM-70.896,-10.689C-70.896,-13.891 -73.501,-16.497 -76.704,-16.497L-84.613,-16.497L-84.613,-4.877L-76.704,-4.882C-73.501,-4.882 -70.896,-7.486 -70.896,-10.689M-83.139,-15.018L-76.704,-15.018C-74.314,-15.018 -72.373,-13.078 -72.373,-10.689C-72.373,-8.301 -74.314,-6.359 -76.704,-6.359L-83.139,-6.359L-83.139,-15.018ZM-90.507,17.065L-89.032,17.065L-89.032,-22.381L-90.507,-22.381L-90.507,17.065ZM-72.654,-2.951C-69.87,-4.414 -67.965,-7.332 -67.965,-10.689C-67.965,-15.508 -71.885,-19.427 -76.704,-19.427L-84.465,-19.427L-84.465,-17.953L-76.704,-17.953C-72.698,-17.953 -69.439,-14.695 -69.439,-10.689C-69.439,-6.682 -72.698,-3.424 -76.704,-3.424L-84.613,-3.389L-84.613,-1.912L-75.37,-1.912C-71.363,-1.912 -68.104,1.348 -68.104,5.354C-68.104,9.358 -71.363,12.617 -75.37,12.617L-84.613,12.617L-84.613,14.093L-75.37,14.093C-70.55,14.093 -66.629,10.173 -66.629,5.354C-66.629,1.481 -69.161,-1.803 -72.654,-2.951M-67.584,-3.373C-65.971,-5.376 -65,-7.919 -65,-10.689C-65,-17.143 -70.25,-22.392 -76.704,-22.392L-87.558,-22.392L-87.558,17.065L-86.088,17.065L-86.088,17.056L-75.37,17.056C-68.916,17.056 -63.665,11.806 -63.665,5.354C-63.665,1.886 -65.183,-1.225 -67.584,-3.373M-75.37,15.582L-86.088,15.582L-86.088,-20.918L-76.704,-20.918C-71.063,-20.918 -66.474,-16.327 -66.474,-10.689C-66.474,-7.728 -67.746,-5.066 -69.765,-3.196L-69.766,-3.196C-66.984,-1.365 -65.142,1.782 -65.142,5.354C-65.142,10.993 -69.729,15.582 -75.37,15.582M-69.563,5.354C-69.563,2.15 -72.168,-0.454 -75.37,-0.454L-84.613,-0.454L-84.613,11.163L-75.37,11.159C-72.168,11.159 -69.563,8.557 -69.563,5.354M-83.132,1.02L-75.37,1.02C-72.982,1.02 -71.037,2.965 -71.037,5.354C-71.037,7.742 -72.982,9.684 -75.37,9.684L-83.132,9.684L-83.132,1.02Z" style="fill:rgb(93,96,104);fill-rule:nonzero;"/>
            </g>
        </g>
    </g>
</svg>
